<?xml version="1.0" encoding="UTF-8"?>
<svg width="16pt" height="16pt" version="1.1" viewBox="0 0 1200 1200" xmlns="http://www.w3.org/2000/svg">
 <g>
  <path d="m600 1200c-24 0-48-6-69.602-18l-420-230.4c-45.598-25.203-74.398-73.203-74.398-126v-451.2c0-52.801 28.801-100.8 74.398-126l420-230.4c43.199-24 94.801-24 138 0l420 230.4c45.602 25.199 74.398 73.199 74.398 126v451.2c0 52.801-28.801 100.8-74.398 126l-420 230.4c-20.398 12.004-44.398 18.004-68.398 18.004zm0-1152c-15.602 0-31.199 3.6016-46.801 12l-420 230.4c-31.199 16.801-49.199 49.199-49.199 84v451.2c0 34.801 19.199 67.199 49.199 84l420 230.4c28.801 15.602 63.602 15.602 92.398 0l420-230.4c31.199-16.801 49.199-49.199 49.199-84l0.003906-451.2c0-34.801-19.199-67.199-50.398-84l-418.8-230.4c-14.402-8.3984-30-12-45.602-12z"/>
  <path d="m237.6 504c-61.199 0-111.6-50.398-111.6-111.6 0-61.199 50.398-111.6 111.6-111.6 61.199 0 111.6 50.398 111.6 111.6-0.003906 61.203-50.402 111.6-111.6 111.6zm0-175.2c-34.801 0-63.602 28.801-63.602 63.602 0 34.801 28.801 63.602 63.602 63.602 34.801 0 63.602-28.801 63.602-63.602-0.003906-34.801-28.805-63.602-63.602-63.602z"/>
  <path d="m430.8 368.4c-46.801 0-84-38.398-84-84 0-45.602 38.398-84 84-84 45.602 0 84 38.398 84 84 0 45.602-37.199 84-84 84zm0-120c-20.398 0-36 16.801-36 36 0 20.398 16.801 36 36 36 20.398 0 36-16.801 36-36 0-20.398-15.602-36-36-36z"/>
  <path d="m609.6 330c-42 0-76.801-34.801-76.801-76.801s34.801-76.801 76.801-76.801 76.801 34.801 76.801 76.801c-0.003906 42-34.801 76.801-76.801 76.801zm0-105.6c-15.602 0-28.801 13.199-28.801 28.801 0 15.602 13.199 28.801 28.801 28.801 15.602 0 28.801-13.199 28.801-28.801-0.003906-15.598-13.203-28.801-28.801-28.801z"/>
  <path d="m909.6 445.2c-38.398 0-69.602-31.199-69.602-69.602 0-38.398 31.199-69.602 69.602-69.602 38.398 0 69.602 31.199 69.602 69.602-0.003906 38.402-31.203 69.602-69.602 69.602zm0-91.199c-12 0-21.602 9.6016-21.602 21.602s9.6016 21.602 21.602 21.602 21.602-9.6016 21.602-21.602c-0.003906-12-10.805-21.602-21.602-21.602z"/>
  <path d="m769.2 364.8c-38.398 0-69.602-31.199-69.602-69.602 0-38.398 31.199-69.602 69.602-69.602 38.398 0 69.602 31.199 69.602 69.602 0 38.402-31.199 69.602-69.602 69.602zm0-90c-12 0-21.602 9.6016-21.602 21.602s9.6016 21.602 21.602 21.602 21.602-9.6016 21.602-21.602c0-12.004-10.801-21.602-21.602-21.602z"/>
  <path d="m488.4 1154.4c-10.801 0-20.398-7.1992-22.801-16.801-15.602-54-49.199-96-87.602-144-12-15.602-25.199-32.398-38.398-49.199l-21.602-26.398c-44.398-61.199-67.199-133.2-67.199-208.8 0-198 160.8-360 360-360 198 0 360 160.8 360 358.8 0 74.398-7.1992 190.8-44.398 321.6-3.6016 13.199-16.801 20.398-30 16.801-13.199-3.6016-20.398-16.801-16.801-30 34.801-126 42-237.6 42-308.4 0-171.6-139.2-312-312-312-171.6 0-312 139.2-312 312 0 64.801 20.398 127.2 57.602 181.2l20.398 26.398c13.199 18 25.199 33.602 38.398 49.199 39.602 50.398 78 98.398 96 160.8 3.6016 13.199-3.6016 26.398-15.602 30-2.3945-2.4023-3.5938-1.2031-5.9961-1.2031z"/>
  <path d="m430.8 801.6c-55.199 0-100.8-45.602-100.8-100.8s45.602-100.8 100.8-100.8c31.199 0 58.801 13.199 78 37.199 8.3984 10.801 7.1992 25.199-3.6016 33.602-10.801 8.3984-25.199 7.1992-33.602-3.6016-9.6016-12-25.199-19.199-40.801-19.199-28.801 0-52.801 24-52.801 52.801s24 52.801 52.801 52.801c14.398 0 27.602-6 37.199-15.602 9.6016-9.6016 24-9.6016 33.602 0 9.6016 9.6016 9.6016 24 0 33.602-17.996 19.199-43.199 30-70.797 30z"/>
  <path d="m619.2 801.6c-54 0-98.398-44.398-98.398-98.398s44.398-98.398 98.398-98.398 98.398 44.398 98.398 98.398c0.003906 53.996-44.398 98.398-98.398 98.398zm0-147.6c-27.602 0-50.398 22.801-50.398 50.398 0 27.602 22.801 50.398 50.398 50.398 27.602 0 50.398-22.801 50.398-50.398 0.003906-27.598-22.797-50.398-50.398-50.398z"/>
  <path d="m860.4 801.6s-1.1992 0 0 0h-108c-13.199 0-24-10.801-24-24 0-38.398 36-60 68.398-78 13.199-7.1992 40.801-22.801 40.801-30 0-10.801-18-15.602-31.199-15.602-8.3984 0-30 2.3984-31.199 16.801 0 13.199-10.801 24-24 24s-24-10.801-24-24c0-37.199 33.602-63.602 78-63.602h1.1992c45.602 0 79.199 27.602 79.199 63.602 0 34.801-34.801 55.199-64.801 72-6 3.6016-14.398 8.3984-21.602 13.199h60c13.199 0 24 10.801 24 24 1.2031 10.801-9.5938 21.602-22.797 21.602z"/>
 </g>
</svg>
